HIERARCHY
ROOT Hips
{
	OFFSET 0.000000 89.005402 0.000000
	CHANNELS 6 Xposition Yposition Zposition Xrotation Yrotation Zrotation
	JOINT Spine
	{
		OFFSET 0.116900 10.681000 0.373400
		CHANNELS 3 Xrotation Yrotation Zrotation
		JOINT Spine1
		{
			OFFSET 0.000000 13.840401 0.053500
			CHANNELS 3 Xrotation Yrotation Zrotation
			JOINT Spine2
			{
				OFFSET 0.000000 14.712700 -0.366200
				CHANNELS 3 Xrotation Yrotation Zrotation
				JOINT Neck
				{
					OFFSET 0.000000 35.415497 -3.314200
					CHANNELS 3 Xrotation Yrotation Zrotation
					JOINT Head
					{
						OFFSET 0.000000 16.899200 1.218300
						CHANNELS 3 Xrotation Yrotation Zrotation
						JOINT HeadTop_End
						{
							OFFSET 0.000000 22.206207 2.192500
							CHANNELS 3 Xrotation Yrotation Zrotation
							End Site
							{
								OFFSET 0.000000 22.314178 0.000000
							}
						}
					}
				}
				JOINT LeftShoulder
				{
					OFFSET 12.896400 26.716293 -4.548400
					CHANNELS 3 Xrotation Yrotation Zrotation
					JOINT LeftArm
					{
						OFFSET 19.027000 -4.857010 -1.718400
						CHANNELS 3 Xrotation Yrotation Zrotation
						JOINT LeftForeArm
						{
							OFFSET 24.179897 0.000000 0.000000
							CHANNELS 3 Xrotation Yrotation Zrotation
							JOINT LeftHand
							{
								OFFSET 27.156403 0.000000 0.000000
								CHANNELS 3 Xrotation Yrotation Zrotation
								JOINT LeftHandIndex1
								{
									OFFSET 16.441200 0.000000 0.000000
									CHANNELS 3 Xrotation Yrotation Zrotation
									JOINT LeftHandIndex2
									{
										OFFSET 4.821899 0.000000 0.000000
										CHANNELS 3 Xrotation Yrotation Zrotation
										JOINT LeftHandIndex3
										{
											OFFSET 6.386497 0.000000 0.000000
											CHANNELS 3 Xrotation Yrotation Zrotation
											JOINT LeftHandIndex4
											{
												OFFSET 5.188988 0.000000 0.000000
												CHANNELS 3 Xrotation Yrotation Zrotation
												End Site
												{
													OFFSET -0.178703 5.185913 0.000177
												}
											}
										}
									}
								}
								JOINT LeftHandThumb1
								{
									OFFSET 6.534897 -5.032593 5.900300
									CHANNELS 3 Xrotation Yrotation Zrotation
									JOINT LeftHandThumb2
									{
										OFFSET 3.818176 -2.204422 2.204423
										CHANNELS 3 Xrotation Yrotation Zrotation
										JOINT LeftHandThumb3
										{
											OFFSET 3.252098 -1.877594 1.877601
											CHANNELS 3 Xrotation Yrotation Zrotation
											JOINT LeftHandThumb4
											{
												OFFSET 5.251778 -3.032120 3.032117
												CHANNELS 3 Xrotation Yrotation Zrotation
												End Site
												{
													OFFSET 0.000023 6.780014 0.000000
												}
											}
										}
									}
								}
							}
						}
					}
				}
				JOINT RightShoulder
				{
					OFFSET -12.896300 26.716293 -4.548400
					CHANNELS 3 Xrotation Yrotation Zrotation
					JOINT RightArm
					{
						OFFSET -19.027000 -4.857010 -1.718400
						CHANNELS 3 Xrotation Yrotation Zrotation
						JOINT RightForeArm
						{
							OFFSET -24.179897 0.000000 0.000000
							CHANNELS 3 Xrotation Yrotation Zrotation
							JOINT RightHand
							{
								OFFSET -27.156403 0.000000 0.000000
								CHANNELS 3 Xrotation Yrotation Zrotation
								JOINT RightHandThumb1
								{
									OFFSET -6.591202 -4.852203 5.988100
									CHANNELS 3 Xrotation Yrotation Zrotation
									JOINT RightHandThumb2
									{
										OFFSET -3.818176 -2.204422 2.204423
										CHANNELS 3 Xrotation Yrotation Zrotation
										JOINT RightHandThumb3
										{
											OFFSET -3.252098 -1.877594 1.877601
											CHANNELS 3 Xrotation Yrotation Zrotation
											JOINT RightHandThumb4
											{
												OFFSET -5.251778 -3.032120 3.032117
												CHANNELS 3 Xrotation Yrotation Zrotation
												End Site
												{
													OFFSET -0.000023 6.780014 0.000000
												}
											}
										}
									}
								}
								JOINT RightHandIndex1
								{
									OFFSET -16.029404 0.000000 0.000000
									CHANNELS 3 Xrotation Yrotation Zrotation
									JOINT RightHandIndex2
									{
										OFFSET -5.213303 0.000000 0.000000
										CHANNELS 3 Xrotation Yrotation Zrotation
										JOINT RightHandIndex3
										{
											OFFSET -6.386528 0.000000 0.000000
											CHANNELS 3 Xrotation Yrotation Zrotation
											JOINT RightHandIndex4
											{
												OFFSET -5.189026 0.000000 0.000000
												CHANNELS 3 Xrotation Yrotation Zrotation
												End Site
												{
													OFFSET 0.236702 5.183624 0.001972
												}
											}
										}
									}
								}
							}
						}
					}
				}
			}
		}
	}
	JOINT LeftUpLeg
	{
		OFFSET 14.073000 -7.904099 -1.463000
		CHANNELS 3 Xrotation Yrotation Zrotation
		JOINT LeftLeg
		{
			OFFSET -0.109806 -34.073280 4.093200
			CHANNELS 3 Xrotation Yrotation Zrotation
			JOINT LeftFoot
			{
				OFFSET 0.109806 -29.899420 -6.319000
				CHANNELS 3 Xrotation Yrotation Zrotation
				JOINT LeftToeBase
				{
					OFFSET 1.551100 -14.988700 20.535801
					CHANNELS 3 Xrotation Yrotation Zrotation
					JOINT LeftToe_End
					{
						OFFSET 0.221200 0.570800 13.248301
						CHANNELS 3 Xrotation Yrotation Zrotation
						End Site
						{
							OFFSET 0.000000 13.262435 0.000000
						}
					}
				}
			}
		}
	}
	JOINT RightUpLeg
	{
		OFFSET -13.839300 -7.904099 -1.463000
		CHANNELS 3 Xrotation Yrotation Zrotation
		JOINT RightLeg
		{
			OFFSET 0.109694 -34.073219 4.093300
			CHANNELS 3 Xrotation Yrotation Zrotation
			JOINT RightFoot
			{
				OFFSET -0.109694 -29.899384 -6.319200
				CHANNELS 3 Xrotation Yrotation Zrotation
				JOINT RightToeBase
				{
					OFFSET -1.551100 -14.988700 20.535801
					CHANNELS 3 Xrotation Yrotation Zrotation
					JOINT RightToe_End
					{
						OFFSET -0.221200 0.570900 13.248299
						CHANNELS 3 Xrotation Yrotation Zrotation
						End Site
						{
							OFFSET 0.000000 13.262440 0.000000
						}
					}
				}
			}
		}
	}
}
MOTION
Frames: 4
Frame Time: 0.033333
1.203644 85.913506 1.331154 -0.893350 1.576364 -4.815794 1.286617 -1.206622 2.473410 0.728743 0.264195 5.944686 0.710789 0.781492 5.851996 1.045307 -0.304693 -2.163990 1.584932 0.544180 -8.140494 0.000000 -0.000000 0.000000 3.582358 -13.764042 -5.044454 4.032783 3.514246 -83.678335 -0.000003 -14.506745 -0.000025 -27.592506 3.698837 -9.416217 0.339559 4.671351 -7.844261 0.387028 2.823578 -20.566227 0.034629 0.816839 -10.169829 -0.000001 -0.000001 0.000002 18.491281 -0.461422 10.916069 1.284039 32.757601 -3.088955 2.117143 9.311160 -0.358624 -0.000000 0.000000 -0.000001 4.508129 3.324372 5.471578 -1.219627 0.655868 67.345412 0.000003 17.736789 -0.000012 -11.193154 -9.123242 10.139283 18.491279 0.461427 -10.916076 1.284049 -32.757608 3.088964 2.008703 -8.430473 1.114718 0.000001 0.000003 -0.000000 0.339565 -4.671354 7.844279 0.387030 -2.823579 20.566217 -0.193126 -0.216348 13.843948 0.000000 -0.000000 -0.000001 -17.832787 11.031153 16.761808 23.660551 8.784880 2.279151 -4.177253 4.012745 -10.861962 -0.441964 -0.000002 -0.000000 -0.000000 -0.000000 0.000000 2.387663 -4.084200 10.975520 8.065494 -5.305671 3.191398 -9.629100 1.084332 -8.313173 -0.548656 -0.000002 -0.000001 -0.000000 0.000000 -0.000000 
1.218755 85.929657 1.326014 -0.893639 1.606275 -4.813274 1.306416 -0.984603 2.398318 0.733450 0.346554 5.869523 0.716419 0.858331 5.777252 1.061004 -0.304761 -2.155590 2.079525 0.349596 -8.094903 -0.000001 -0.000000 0.000000 3.582640 -13.757863 -5.048422 4.023174 3.514155 -83.687794 0.000005 -14.494348 -0.000008 -27.668591 3.728249 -9.421312 0.339565 4.671369 -7.844275 0.395440 2.845825 -20.801929 0.038032 0.840461 -10.405131 0.000002 -0.000000 -0.000000 18.491284 -0.461409 10.916098 1.284056 32.757652 -3.088933 2.117142 9.311183 -0.358631 -0.000000 -0.000000 -0.000001 4.508019 3.316740 5.470296 -1.233769 0.644150 67.353663 0.000003 17.735990 -0.000026 -11.216339 -9.165427 10.176512 18.480533 0.519653 -10.898047 1.214585 -32.580282 3.088674 1.994132 -8.370755 1.125008 0.000001 0.000001 -0.000001 0.329629 -4.598685 7.761349 0.383884 -2.815185 20.477390 -0.193453 -0.207087 13.755301 -0.000000 -0.000000 -0.000002 -17.809486 11.039181 16.728511 23.588101 8.768312 2.287208 -4.139030 4.006530 -10.835624 -0.436529 -0.000012 -0.000002 -0.000000 0.000000 0.000000 2.431841 -4.082087 10.966734 7.961414 -5.255145 3.192089 -9.574722 1.008627 -8.318250 -0.546220 -0.000001 -0.000003 0.000000 -0.000002 -0.000000 
1.230073 85.940804 1.322208 -0.894384 1.676842 -4.802495 1.326751 -0.759023 2.313984 0.738435 0.430093 5.790163 0.722290 0.936196 5.698308 1.093935 -0.304572 -2.137059 3.112017 -0.008537 -7.959955 0.000000 0.000000 -0.000000 3.583350 -13.742834 -5.057944 3.999133 3.516566 -83.710812 -0.000001 -14.459522 -0.000009 -27.852314 3.799289 -9.432172 0.339564 4.671370 -7.844296 0.414445 2.895127 -21.325702 0.045944 0.892909 -10.928041 -0.000002 -0.000001 0.000000 18.491284 -0.461407 10.916093 1.284069 32.757656 -3.088954 2.117146 9.311177 -0.358630 0.000000 0.000001 -0.000000 4.507740 3.298286 5.467155 -1.267050 0.614639 67.372549 0.000000 17.732996 0.000005 -11.276533 -9.269183 10.265481 18.457446 0.645302 -10.859159 1.065895 -32.199516 3.088929 1.962815 -8.242533 1.147130 -0.000000 -0.000002 0.000002 0.307927 -4.434346 7.574010 0.376824 -2.796201 20.276625 -0.194141 -0.186156 13.554902 0.000000 -0.000000 0.000001 -17.801734 11.038810 16.680205 23.525787 8.723320 2.305443 -4.099032 3.997702 -10.807065 -0.424067 -0.000012 0.000004 -0.000000 0.000002 0.000000 2.465823 -4.094653 10.966732 7.891774 -5.142242 3.188094 -9.552261 0.844083 -8.343377 -0.540397 0.000001 0.000001 0.000000 -0.000000 -0.000000 
1.237361 85.946548 1.319730 -0.895721 1.794681 -4.781950 1.347547 -0.532562 2.218892 0.743718 0.513786 5.706588 0.728392 1.014108 5.615142 1.142571 -0.303649 -2.106535 4.672373 -0.467691 -7.700349 -0.000001 0.000000 -0.000000 3.584565 -13.717448 -5.073970 3.958310 3.521859 -83.750113 0.000004 -14.398539 0.000019 -28.162057 3.919519 -9.449268 0.339558 4.671320 -7.844236 0.445665 2.973289 -22.160098 0.059532 0.976303 -11.761068 -0.000000 -0.000001 0.000001 18.491274 -0.461442 10.916077 1.284019 32.757543 -3.088956 2.117130 9.311140 -0.358634 -0.000000 -0.000002 0.000000 4.507264 3.267157 5.461832 -1.322756 0.564287 67.403981 0.000001 17.727449 -0.000004 -11.379687 -9.445180 10.414834 18.419996 0.848941 -10.796108 0.826853 -31.584028 3.091801 1.912100 -8.035317 1.183010 0.000001 0.000002 0.000001 0.275043 -4.168160 7.271209 0.365541 -2.765427 19.951737 -0.195098 -0.152282 13.230714 0.000000 -0.000000 0.000000 -17.810978 11.029169 16.613937 23.473246 8.646103 2.335011 -4.056037 3.984883 -10.775206 -0.403853 0.000012 0.000004 -0.000000 -0.000002 -0.000000 2.489468 -4.123841 10.978258 7.858364 -4.962249 3.177836 -9.564579 0.581334 -8.391807 -0.530594 -0.000004 0.000000 0.000000 -0.000000 0.000000 
